<svg width="25" height="24" viewBox="0 0 25 24" fill="none" xmlns="http://www.w3.org/2000/svg">
<g clip-path="url(#clip0)">
<path d="M4.47442 23.4848C3.41697 23.4848 2.47789 23.0744 1.65719 22.2537C0.78913 21.3857 0.355103 20.3322 0.355103 19.0932C0.355103 17.8543 0.78913 16.8008 1.65719 15.9327L15.2699 1.49142C15.9643 0.78119 16.7653 0.323488 17.6728 0.118311C18.5803 -0.0868656 19.4997 -0.0316257 20.4309 0.284031C21.362 0.599687 22.2222 1.14419 23.0114 1.91755C23.2639 2.18586 23.4967 2.48179 23.7097 2.80534C23.9228 3.12889 24.0964 3.46822 24.2306 3.82333C24.3647 4.17844 24.4673 4.55329 24.5383 4.94786C24.6094 5.34243 24.6449 5.737 24.6449 6.13157C24.6133 7.80455 24.0451 9.20133 22.9403 10.3219L12.642 21.2594C12.5 21.4172 12.3264 21.5001 12.1212 21.508C11.916 21.5159 11.7385 21.4488 11.5885 21.3068C11.4386 21.1647 11.3597 20.9872 11.3518 20.7741C11.3439 20.561 11.411 20.3756 11.553 20.2177L21.8513 9.28024C22.6878 8.42797 23.1139 7.37052 23.1297 6.10789C23.1455 4.84527 22.743 3.81149 21.9223 3.00657C21.4173 2.48574 20.857 2.09116 20.2415 1.82286C19.6259 1.55455 18.9631 1.46774 18.2528 1.56244C17.5426 1.65714 16.9113 1.98068 16.3589 2.53308L2.7462 16.9744C2.16224 17.5583 1.87025 18.2607 1.87025 19.0814C1.87025 19.9021 2.16224 20.6044 2.7462 21.1884C3.01451 21.4567 3.30649 21.6579 3.62215 21.7921C3.9378 21.9262 4.26924 21.9775 4.61647 21.946C5.31091 21.9144 5.95801 21.5908 6.55775 20.9753L17.3769 9.46964C17.4558 9.39072 17.5308 9.30786 17.6018 9.22106C17.6728 9.13425 17.7478 9.03166 17.8267 8.91329C17.9056 8.79492 17.9687 8.66866 18.0161 8.5345C18.0634 8.40035 18.095 8.2662 18.1108 8.13204C18.1266 7.99789 18.1029 7.85979 18.0398 7.71774C17.9766 7.5757 17.8819 7.44154 17.7557 7.31528C17.4558 6.99962 17.1638 6.85758 16.8797 6.88914C16.5798 6.92071 16.2405 7.11799 15.8617 7.481L7.71779 16.1458C7.6231 16.2405 7.51262 16.3075 7.38635 16.347C7.26009 16.3865 7.12988 16.3904 6.99573 16.3588C6.86157 16.3273 6.74715 16.2641 6.65245 16.1694C6.49462 16.0274 6.41571 15.8538 6.41571 15.6486C6.41571 15.4434 6.48673 15.2619 6.62878 15.1041L14.7727 6.41566C15.4198 5.78435 16.0748 5.43712 16.7377 5.37399C17.4953 5.31086 18.1897 5.59495 18.821 6.22627C19.4208 6.81023 19.6851 7.49678 19.6141 8.28592C19.5431 9.07507 19.1603 9.81686 18.4659 10.5113L7.64677 22.0407C6.76293 22.9245 5.7765 23.398 4.68749 23.4611C4.65592 23.4611 4.62041 23.4651 4.58095 23.4729C4.5415 23.4808 4.50599 23.4848 4.47442 23.4848Z" fill="white"/>
</g>
<defs>
<clipPath id="clip0">
<rect width="25" height="23.4848" fill="white"/>
</clipPath>
</defs>
</svg>
