<svg width="32" height="32" viewBox="0 0 32 32" fill="none" xmlns="http://www.w3.org/2000/svg">
<path d="M30 18V16H24V26H26V22H29V20H26V18H30Z" fill="#4C9EB2"/>
<path d="M19 26H15V16H19C19.7954 16.0008 20.558 16.3171 21.1204 16.8796C21.6829 17.442 21.9992 18.2046 22 19V23C21.9992 23.7954 21.6829 24.558 21.1204 25.1204C20.558 25.6829 19.7954 25.9992 19 26ZM17 24H19C19.2651 23.9997 19.5193 23.8943 19.7068 23.7068C19.8943 23.5193 19.9997 23.2651 20 23V19C19.9997 18.7349 19.8943 18.4807 19.7068 18.2932C19.5193 18.1057 19.2651 18.0003 19 18H17V24Z" fill="#4C9EB2"/>
<path d="M11 16H6V26H8V23H11C11.5302 22.9992 12.0384 22.7882 12.4133 22.4133C12.7882 22.0384 12.9992 21.5302 13 21V18C12.9995 17.4697 12.7886 16.9613 12.4136 16.5864C12.0387 16.2114 11.5303 16.0005 11 16ZM8 21V18H11L11.001 21H8Z" fill="#4C9EB2"/>
<path d="M22 13.9999V9.99985C22.0035 9.86843 21.9785 9.7378 21.9268 9.61696C21.875 9.49612 21.7976 9.38793 21.7 9.29985L14.7 2.29985C14.612 2.2022 14.5038 2.1248 14.3829 2.07301C14.2621 2.02122 14.1314 1.99626 14 1.99985H4C3.47005 2.00143 2.96227 2.21266 2.58753 2.58739C2.2128 2.96212 2.00158 3.46991 2 3.99985V27.9999C2 28.5303 2.21071 29.039 2.58579 29.4141C2.96086 29.7891 3.46957 29.9999 4 29.9999H20V27.9999H4V3.99985H12V9.99985C12.0016 10.5298 12.2128 11.0376 12.5875 11.4123C12.9623 11.787 13.4701 11.9983 14 11.9999H20V13.9999H22ZM14 9.99985V4.39985L19.6 9.99985H14Z" fill="#4C9EB2"/>
</svg>
