<svg width="50" height="50" viewBox="0 0 50 50" fill="none" xmlns="http://www.w3.org/2000/svg">
<path d="M13.5414 20.8335C13.0768 20.8335 12.6309 20.9043 12.1872 20.9689C12.3309 20.4856 12.4789 19.9939 12.7164 19.5522C12.9539 18.9106 13.3247 18.3543 13.6934 17.7939C14.0018 17.1877 14.5455 16.7772 14.9455 16.2585C15.3643 15.7543 15.9351 15.4189 16.3872 15.0002C16.8309 14.5627 17.4122 14.3439 17.8747 14.0356C18.358 13.7585 18.7789 13.4522 19.2289 13.3064L20.3518 12.8439L21.3393 12.4335L20.3289 8.396L19.0851 8.696C18.6872 8.796 18.2018 8.91266 17.6497 9.05225C17.0851 9.15641 16.483 9.44183 15.8122 9.70225C15.1497 9.99808 14.383 10.1981 13.6705 10.6731C12.9539 11.1272 12.1268 11.5064 11.3976 12.1147C10.6914 12.7418 9.83928 13.2856 9.21011 14.0835C8.52261 14.8293 7.84344 15.6127 7.31636 16.5043C6.70594 17.3543 6.29136 18.2877 5.85386 19.2106C5.45803 20.1335 5.13928 21.0772 4.87886 21.9939C4.38511 23.8314 4.16428 25.5773 4.07886 27.071C4.00803 28.5668 4.04969 29.8106 4.13719 30.7106C4.16844 31.1356 4.22678 31.5481 4.26844 31.8335L4.32053 32.1835L4.37469 32.171C4.74524 33.9019 5.59824 35.4925 6.83503 36.7589C8.07182 38.0252 9.64186 38.9156 11.3635 39.3269C13.0852 39.7382 14.8881 39.6537 16.5638 39.0832C18.2394 38.5126 19.7193 37.4793 20.8322 36.1028C21.9451 34.7264 22.6456 33.0629 22.8526 31.305C23.0597 29.547 22.7648 27.7663 22.0021 26.169C21.2393 24.5716 20.04 23.2228 18.5427 22.2786C17.0455 21.3344 15.3115 20.8334 13.5414 20.8335ZM36.458 20.8335C35.9934 20.8335 35.5476 20.9043 35.1039 20.9689C35.2476 20.4856 35.3955 19.9939 35.633 19.5522C35.8705 18.9106 36.2414 18.3543 36.6101 17.7939C36.9184 17.1877 37.4622 16.7772 37.8622 16.2585C38.2809 15.7543 38.8518 15.4189 39.3039 15.0002C39.7476 14.5627 40.3289 14.3439 40.7914 14.0356C41.2747 13.7585 41.6955 13.4522 42.1455 13.3064L43.2684 12.8439L44.2559 12.4335L43.2455 8.396L42.0018 8.696C41.6039 8.796 41.1184 8.91266 40.5664 9.05225C40.0018 9.15641 39.3997 9.44183 38.7289 9.70225C38.0684 10.0002 37.2997 10.1981 36.5872 10.6752C35.8705 11.1293 35.0434 11.5085 34.3143 12.1168C33.608 12.7439 32.7559 13.2877 32.1268 14.0835C31.4393 14.8293 30.7601 15.6127 30.233 16.5043C29.6226 17.3543 29.208 18.2877 28.7705 19.2106C28.3747 20.1335 28.0559 21.0772 27.7955 21.9939C27.3018 23.8314 27.0809 25.5773 26.9955 27.071C26.9247 28.5668 26.9664 29.8106 27.0539 30.7106C27.0851 31.1356 27.1434 31.5481 27.1851 31.8335L27.2372 32.1835L27.2914 32.171C27.6619 33.9019 28.5149 35.4925 29.7517 36.7589C30.9885 38.0252 32.5585 38.9156 34.2802 39.3269C36.0019 39.7382 37.8048 39.6537 39.4804 39.0832C41.1561 38.5126 42.6359 37.4793 43.7489 36.1028C44.8618 34.7264 45.5623 33.0629 45.7693 31.305C45.9763 29.547 45.6814 27.7663 44.9187 26.169C44.156 24.5716 42.9566 23.2228 41.4594 22.2786C39.9621 21.3344 38.2281 20.8334 36.458 20.8335Z" fill="#4C9EB2"/>
</svg>
